<?xml version="1.0" encoding="utf-8"?>
<!-- Generator: Adobe Illustrator 16.0.4, SVG Export Plug-In . SVG Version: 6.00 Build 0)  -->
<!DOCTYPE svg PUBLIC "-//W3C//DTD SVG 1.1//EN" "http://www.w3.org/Graphics/SVG/1.1/DTD/svg11.dtd">
<svg version="1.1" id="Layer_1" xmlns="http://www.w3.org/2000/svg" xmlns:xlink="http://www.w3.org/1999/xlink" x="0px" y="0px"
	 width="50px" height="50px" viewBox="0 0 50 50" enable-background="new 0 0 50 50" xml:space="preserve">
<path d="M20.327,25.134c-0.215,0.9-0.87,1.806-0.87,1.806s-2.347,0.242-2.941-0.789l-0.75-1.297c0.617,0.038,1.43-0.274,2.104-0.663
	c0.161-0.093,0.322-0.196,0.478-0.305c0.156,0.01,0.322,0.028,0.429,0.061C19.184,24.07,19.911,24.39,20.327,25.134z M17.364,23.541
	c-0.023-0.634,0.386-1.099,0.685-1.227c0.314-0.134,0.678-0.196,1.146-0.196c0.086,0,0.165,0.008,0.25,0.011
	c0.006-0.114-0.005-0.224-0.062-0.323c-0.69-1.195-1.927-1.101-3.122-0.412l-0.926-1.255l-0.237,0.821l0.863,0.628
	c-1.006,0.683-1.541,1.628-0.91,2.719c0.309,0.535,1.345,0.329,2.335-0.167L17.364,23.541z M35.125,20.939
	c-0.956-1.347-2.879-1.816-3.616-0.73c-0.516,0.759-0.217,1.926,0.896,3.384c1.395,1.824,1.658,3.331,1.195,4.943
	c-0.988,3.441-3.793,3.915-6.439,4.545c-1.596,1.243-3.753,1.189-4.344,1.566c-0.254,0.162-0.9,0.148-1.031,0.062
	c-0.132-0.086,0.252-0.247,0.361-0.312c-0.298,0.008-0.585,0.102-0.821,0.188c0.062-0.249,0.488-0.813,0.711-0.799
	c-0.413-0.396-1.607-0.334-2.565-0.047c-0.017-0.329,0.122-0.604,0.398-0.747c0.311-0.161,0.523-0.236,1.14-0.336
	c0.005-0.646-0.91-1.264-1.044-2.133c-0.299-1.924,0.847-2.211,1.029-3.448c0.382-2.603-1.596-3.357-2.099-3.511
	c-0.294-0.09-0.896-0.176-1.132-0.039c-0.016-0.448,0.277-0.775,0.444-0.846c0.905-0.386,2.205,0.065,2.518-0.207
	c0.02-0.501,0.166-1.258,0.258-1.514c0.122-0.339-1.134,0.237-1.787-0.393c-0.222-0.214-0.73-0.348-0.737-0.77
	c-0.014-0.839,1.414-1.829,2.741-2.425c-0.027-0.176-0.014-1.421,0.434-1.228c0.448,0.193,0.755,0.667,0.755,0.667
	s0.544-1.865,0.969-1.547c0.424,0.317,0.547,2.049,0.712,2.338s0.508,0.26,0.849,1.057c0.52,1.218-0.18,1.53,0.321,2.412
	c0.938,1.651,3.936,4.593,3.714,8.163c-0.038,0.619-0.146,1.151-0.292,1.625c0.002,0,0.004,0.002,0.005,0.002
	c1.729-4.793-1.504-7.761-2.612-10.881c0.475-1.874,1.559-3.552,3.565-4.184C32.572,14.867,35.823,17.189,35.125,20.939z
	 M21.232,18.432c-0.109-0.19-0.437-0.206-0.731-0.036s-0.443,0.461-0.333,0.651c0.109,0.19,0.436,0.207,0.73,0.037
	S21.341,18.622,21.232,18.432z M20.444,18.494c-0.187,0.108-0.27,0.312-0.187,0.457c0.083,0.145,0.302,0.174,0.489,0.067
	c0.187-0.108,0.271-0.312,0.187-0.457S20.631,18.385,20.444,18.494z"/>
</svg>
